<mxfile host="www.draw.io" modified="2020-02-25T16:20:37.091Z" agent="Mozilla/5.0 (Macintosh; Intel Mac OS X 10_15_3) AppleWebKit/537.36 (KHTML, like Gecko) Chrome/80.0.3987.122 Safari/537.36" etag="X4knLPx-cklVqN68WXEw" version="12.7.5" type="github">
  <diagram id="ktuENvmaCMpyIZ9lSn_-" name="Page-1">
    <mxGraphModel dx="946" dy="646" grid="1" gridSize="10" guides="1" tooltips="1" connect="1" arrows="1" fold="1" page="1" pageScale="1" pageWidth="850" pageHeight="1100" math="0" shadow="0">
      <root>
        <mxCell id="0" />
        <mxCell id="1" parent="0" />
        <mxCell id="Ayj6SV7xXS0KNXRaG4xC-1" value="" style="aspect=fixed;html=1;points=[];align=center;image;fontSize=12;image=img/lib/mscae/CustomDomain.svg;" vertex="1" parent="1">
          <mxGeometry x="320" y="120" width="95.23" height="80" as="geometry" />
        </mxCell>
        <mxCell id="Ayj6SV7xXS0KNXRaG4xC-2" value="" style="aspect=fixed;html=1;points=[];align=center;image;fontSize=12;image=img/lib/mscae/App_Service_Mobile_App.svg;" vertex="1" parent="1">
          <mxGeometry x="330" y="320" width="68" height="100" as="geometry" />
        </mxCell>
      </root>
    </mxGraphModel>
  </diagram>
</mxfile>
